<svg xmlns="http://www.w3.org/2000/svg" xmlns:xlink="http://www.w3.org/1999/xlink"><symbol id="arrow" viewBox="0 0 129 129">
<g>
	<path d="M88.5,7.7c0.8-0.8,1.8-1.2,2.9-1.2s2.1,0.4,2.9,1.2c1.6,1.6,1.6,4.2,0,5.8l-51,51l51,51c1.6,1.6,1.6,4.2,0,5.8
		c-1.6,1.6-4.2,1.6-5.8,0L34.6,67.4c-1.6-1.6-1.6-4.2,0-5.8L88.5,7.7z"/>
</g>
</symbol><symbol id="left-arrow" viewBox="0 0 31.49 31.49"><g transform="matrix(-1 -1.22465e-16 1.22465e-16 -1 31.49 31.49)"><path d="M21.205,5.007c-0.429-0.444-1.143-0.444-1.587,0c-0.429,0.429-0.429,1.143,0,1.571l8.047,8.047H1.111  C0.492,14.626,0,15.118,0,15.737c0,0.619,0.492,1.127,1.111,1.127h26.554l-8.047,8.032c-0.429,0.444-0.429,1.159,0,1.587  c0.444,0.444,1.159,0.444,1.587,0l9.952-9.952c0.444-0.429,0.444-1.143,0-1.571L21.205,5.007z" data-original="#1E201D" class="active-path" data-old_color="#1E201D"/></g> </symbol><symbol id="right-arrow" viewBox="0 0 31.49 31.49"><g><path d="M21.205,5.007c-0.429-0.444-1.143-0.444-1.587,0c-0.429,0.429-0.429,1.143,0,1.571l8.047,8.047H1.111  C0.492,14.626,0,15.118,0,15.737c0,0.619,0.492,1.127,1.111,1.127h26.554l-8.047,8.032c-0.429,0.444-0.429,1.159,0,1.587  c0.444,0.444,1.159,0.444,1.587,0l9.952-9.952c0.444-0.429,0.444-1.143,0-1.571L21.205,5.007z" data-original="#1E201D" class="active-path" data-old_color="#1E201D"/></g> </symbol><symbol id="phone" viewBox="0 0 578.106 578.106">
<g>
	<g>
		<path style="fill:#e10503;" d="M577.83,456.128c1.225,9.385-1.635,17.545-8.568,24.48l-81.396,80.781
			c-3.672,4.08-8.465,7.551-14.381,10.404c-5.916,2.857-11.729,4.693-17.439,5.508c-0.408,0-1.635,0.105-3.676,0.309
			c-2.037,0.203-4.689,0.307-7.953,0.307c-7.754,0-20.301-1.326-37.641-3.979s-38.555-9.182-63.645-19.584
			c-25.096-10.404-53.553-26.012-85.376-46.818c-31.823-20.805-65.688-49.367-101.592-85.68
			c-28.56-28.152-52.224-55.08-70.992-80.783c-18.768-25.705-33.864-49.471-45.288-71.299
			c-11.425-21.828-19.993-41.616-25.705-59.364S4.59,177.362,2.55,164.51s-2.856-22.95-2.448-30.294
			c0.408-7.344,0.612-11.424,0.612-12.24c0.816-5.712,2.652-11.526,5.508-17.442s6.324-10.71,10.404-14.382L98.022,8.756
			c5.712-5.712,12.24-8.568,19.584-8.568c5.304,0,9.996,1.53,14.076,4.59s7.548,6.834,10.404,11.322l65.484,124.236
			c3.672,6.528,4.692,13.668,3.06,21.42c-1.632,7.752-5.1,14.28-10.404,19.584l-29.988,29.988c-0.816,0.816-1.53,2.142-2.142,3.978
			s-0.918,3.366-0.918,4.59c1.632,8.568,5.304,18.36,11.016,29.376c4.896,9.792,12.444,21.726,22.644,35.802
			s24.684,30.293,43.452,48.653c18.36,18.77,34.68,33.354,48.96,43.76c14.277,10.4,26.215,18.053,35.803,22.949
			c9.588,4.896,16.932,7.854,22.031,8.871l7.648,1.531c0.816,0,2.145-0.307,3.979-0.918c1.836-0.613,3.162-1.326,3.979-2.143
			l34.883-35.496c7.348-6.527,15.912-9.791,25.705-9.791c6.938,0,12.443,1.223,16.523,3.672h0.611l118.115,69.768
			C571.098,441.238,576.197,447.968,577.83,456.128z"/>
	</g>
</g>
<g>
</g>
<g>
</g>
<g>
</g>
<g>
</g>
<g>
</g>
<g>
</g>
<g>
</g>
<g>
</g>
<g>
</g>
<g>
</g>
<g>
</g>
<g>
</g>
<g>
</g>
<g>
</g>
<g>
</g>
</symbol></svg>